<?xml version="1.0" standalone="no"?>
<!DOCTYPE svg PUBLIC "-//W3C//DTD SVG 20010904//EN"
 "http://www.w3.org/TR/2001/REC-SVG-20010904/DTD/svg10.dtd">
<svg version="1.0" xmlns="http://www.w3.org/2000/svg"
 width="256.000000pt" height="256.000000pt" viewBox="0 0 256.000000 256.000000"
 preserveAspectRatio="xMidYMid meet">
<metadata>
Created by potrace 1.14, written by Peter Selinger 2001-2017
</metadata>
<g transform="translate(0.000000,256.000000) scale(0.100000,-0.100000)"
fill="#000000" stroke="none">
<path d="M1814 2540 c-113 -29 -178 -67 -289 -165 -141 -126 -256 -191 -592
-336 -360 -154 -516 -246 -646 -376 -143 -145 -219 -287 -274 -518 -11 -47
-10 -265 2 -332 38 -211 136 -395 287 -538 197 -188 422 -276 691 -270 67 1
136 6 152 9 289 64 494 202 654 441 73 109 135 231 231 455 145 341 217 470
340 610 127 144 176 250 187 405 9 142 -32 278 -120 393 -56 75 -88 104 -170
155 -128 78 -309 105 -453 67z m261 -147 c154 -46 272 -162 314 -308 31 -105
21 -226 -26 -319 -22 -44 -94 -141 -128 -171 -24 -22 -104 -134 -143 -202 -54
-91 -111 -213 -202 -428 -166 -393 -275 -551 -465 -679 -64 -43 -190 -99 -246
-110 -13 -2 -43 -9 -67 -14 -45 -11 -244 -9 -297 2 -58 12 -161 51 -224 83
-220 115 -377 327 -426 577 -13 68 -14 251 -1 305 55 236 169 404 368 543 82
57 235 134 443 222 312 132 512 241 610 333 63 58 131 111 165 128 100 52 227
67 325 38z"/>
<path d="M991 1559 c-282 -46 -523 -316 -536 -602 -15 -305 219 -535 522 -514
318 22 588 300 598 615 8 232 -122 421 -335 488 -59 19 -175 24 -249 13z m186
-153 c105 -22 216 -129 239 -230 66 -286 -193 -595 -489 -582 -135 6 -232 67
-288 182 -29 59 -33 76 -33 148 0 167 90 324 240 418 41 27 142 65 184 71 29
4 115 0 147 -7z"/>
</g>
</svg>
